<svg width="1106" height="889" viewBox="0 0 1106 889" fill="none" xmlns="http://www.w3.org/2000/svg">
<g filter="url(#filter0_d_14_52)">
<path fill-rule="evenodd" clip-rule="evenodd" d="M421.238 1.25C420.684 1.938 419.902 4.075 419.5 6C419.098 7.925 418.444 9.95 418.046 10.5C417.648 11.05 415.85 15.775 414.049 21C412.248 26.225 410.213 31.85 409.527 33.5C408.841 35.15 407.697 38.75 406.985 41.5C406.272 44.25 405.365 46.95 404.967 47.5C404.57 48.05 403.924 49.625 403.532 51C402.255 55.477 397.911 66.098 395.871 69.73C393.266 74.367 390.309 76.699 386 77.516C384.075 77.881 382.05 78.529 381.5 78.956C380.95 79.384 378.093 80.04 375.151 80.415C369.181 81.174 354.203 85.644 352.214 87.26C351.506 87.835 347.681 88.483 343.714 88.7L336.5 89.095L332.063 84.956C329.623 82.679 326.023 79.62 324.063 78.158C322.103 76.696 320.05 74.988 319.5 74.361C318.95 73.735 313.775 69.318 308 64.546C294.829 53.662 289.166 48.913 287.074 47C284.457 44.606 278.699 40.417 276.228 39.109C274.257 38.065 273.001 38.409 266.728 41.703C262.753 43.791 259.275 45.761 259 46.08C258.725 46.399 257.037 47.297 255.25 48.074C253.463 48.852 252 49.784 252 50.146C252 50.508 250.763 51.285 249.25 51.872C247.738 52.459 244.25 54.314 241.5 55.994C238.75 57.674 235.375 59.591 234 60.254C232.625 60.917 231.275 61.693 231 61.98C230.725 62.266 228.925 63.29 227 64.257C220.966 67.285 210.309 73.44 208.619 74.872C206.846 76.375 206.475 81.025 207.91 83.764C208.41 84.719 209.784 92.25 210.963 100.5C212.143 108.75 213.995 120.9 215.079 127.5C219.381 153.674 220.298 161.198 219.268 161.852C212.618 166.078 190.714 187.491 186.127 194.25C183.391 198.282 182.412 199 179.652 199C177.863 199 175.972 198.61 175.45 198.134C174.928 197.657 170.225 196.727 165 196.068C159.775 195.408 154.15 194.454 152.5 193.948C150.85 193.442 145.225 192.357 140 191.538C120.486 188.478 106.432 186.08 104.297 185.445C100.278 184.252 96.503 186.955 92.891 193.614C91.026 197.052 85.112 207.495 79.75 216.822C74.387 226.149 70 234.242 70 234.807C70 235.371 69.649 235.983 69.219 236.167C68.79 236.35 66.365 240.183 63.83 244.685C58.812 253.598 58.817 253.795 64.186 259.5C65.222 260.6 68.242 264.266 70.898 267.646C76.122 274.295 77.688 276.222 80 278.846C80.825 279.782 85.015 284.812 89.311 290.024C101.194 304.439 103.413 307.118 104.5 308.359C112.419 317.404 112.248 317.073 111.582 322.093C111.233 324.721 110.312 328.097 109.535 329.595C108.758 331.093 107.844 334.16 107.504 336.409C107.165 338.659 106.481 341.4 105.986 342.5C105.49 343.6 104.427 347.875 103.623 352C102.82 356.125 101.412 362.246 100.495 365.602L98.829 371.704L90.164 374.551C85.399 376.117 81.275 377.668 81 377.998C80.725 378.328 78.475 379.167 76 379.862C71.287 381.187 67.363 382.609 52.5 388.377C47.55 390.299 41.925 392.325 40 392.881C34.839 394.371 23.836 398.465 21.25 399.858L19 401.07V439.38C19 475.224 19.118 477.797 20.829 479.345C21.835 480.255 23.185 481 23.829 481C24.473 481 25 481.379 25 481.842C25 482.305 26.913 483.251 29.25 483.945C31.587 484.639 33.95 485.564 34.5 486.001C35.05 486.438 37.75 487.497 40.5 488.355C43.25 489.212 48.65 491.093 52.5 492.535C56.35 493.976 61.975 495.837 65 496.67C68.025 497.503 70.95 498.549 71.5 498.994C72.05 499.44 74.525 500.317 77 500.944C81.946 502.196 82.492 502.413 92.202 506.972C95.887 508.703 99.116 510.88 99.377 511.81C99.637 512.739 100.161 515.075 100.541 517C100.92 518.925 101.557 520.95 101.956 521.5C102.355 522.05 103.255 525.875 103.957 530C104.659 534.125 105.572 537.95 105.986 538.5C106.4 539.05 107.06 541.3 107.452 543.5C107.845 545.7 108.78 548.85 109.531 550.5C110.282 552.15 111.293 555.075 111.779 557C112.52 559.938 113.05 560.449 115.081 560.18C116.411 560.004 125.6 559.462 135.5 558.976C145.4 558.49 155.525 557.644 158 557.097C167.568 554.981 175.519 552.817 176.488 552.063C177.045 551.63 178.85 550.961 180.5 550.576C186.133 549.263 200 541.794 200 540.074C200 539.173 199.302 535.975 198.448 532.968C194.482 518.995 190.891 501.238 187.839 480.5C186.302 470.06 186.299 413.352 187.834 402C190.715 380.693 197.832 348.386 201.712 339C202.28 337.625 203.079 334.925 203.488 333C203.897 331.075 204.575 329.05 204.995 328.5C205.415 327.95 206.53 324.8 207.474 321.5C208.417 318.2 209.538 315.05 209.964 314.5C210.391 313.95 211.258 311.888 211.892 309.918C212.526 307.948 213.934 304.591 215.022 302.457C216.11 300.323 217 297.997 217 297.289C217 296.58 217.45 296 218 296C218.55 296 219 295.443 219 294.762C219 293.527 228.998 272.95 230.059 272C230.366 271.725 232.29 268.575 234.334 265C242.291 251.08 259.244 226.721 267.615 217.179C286.387 195.781 299.552 182.854 315.557 170.105C322.189 164.822 328.714 159.725 330.057 158.777C331.401 157.83 335.227 155.13 338.56 152.777C345.438 147.923 347.087 146.844 352 143.982C353.925 142.861 356.85 141.08 358.5 140.024C360.15 138.969 364.875 136.324 369 134.148C373.125 131.971 377.85 129.475 379.5 128.601C381.15 127.727 383.063 127.01 383.75 127.006C384.438 127.003 385 126.55 385 126C385 125.45 385.563 124.986 386.25 124.969C386.938 124.952 389.75 123.831 392.5 122.478C395.25 121.125 397.824 120.014 398.22 120.009C398.617 120.004 401.4 118.875 404.406 117.5C407.412 116.125 410.463 114.997 411.186 114.994C411.909 114.99 413.625 114.402 415 113.687C418.798 111.712 444.825 103.866 452 102.533C453.925 102.176 456.4 101.482 457.5 100.992C459.611 100.051 481.986 96.416 495.5 94.818C506.412 93.528 549.361 93.3 572.354 94.41C590.627 95.293 591.198 95.262 590.854 93.41C590.61 92.094 588.634 90.848 584.5 89.403C581.2 88.25 577.825 87.055 577 86.748C572.167 84.951 557.831 81.025 554 80.45C551.525 80.078 549.05 79.434 548.5 79.018C547.95 78.603 543.754 77.667 539.176 76.939C531.721 75.754 530.704 75.328 529.426 72.858C528.642 71.341 528 69.582 528 68.951C528 68.319 527.343 66.384 526.54 64.651C525.737 62.918 523.483 57 521.531 51.5C519.579 46 517.568 40.6 517.061 39.5C516.554 38.4 515.599 35.7 514.939 33.5C514.279 31.3 513.407 29.05 513 28.5C512.593 27.95 511.713 25.7 511.044 23.5C510.375 21.3 509.187 18.073 508.405 16.33C507.622 14.586 506.705 11.774 506.366 10.08C506.027 8.386 505.406 7 504.986 7C504.566 7 503.927 5.425 503.566 3.5L502.909 0H462.577C431.515 0 422.013 0.287 421.238 1.25ZM601.611 73.195C600.8 76.113 599.825 80.525 599.445 83C599.066 85.475 598.457 87.725 598.094 88C597.414 88.514 595.148 96.927 592.221 109.803L590.561 117.105L578.03 116.704C571.139 116.483 561.675 115.704 557 114.974C546.174 113.283 501.945 113.182 493.5 114.829C490.2 115.473 483.573 116.64 478.773 117.422C467.621 119.241 450.962 122.889 448.94 123.956C448.083 124.409 444.708 125.328 441.44 125.998C438.173 126.668 435.05 127.574 434.5 128.011C433.95 128.447 431.475 129.315 429 129.94C424.63 131.042 420.997 132.399 412.305 136.177C409.998 137.18 407.791 138 407.401 138C405.705 138 380.55 150.358 378 152.444C377.175 153.118 375.038 154.249 373.25 154.957C371.462 155.664 370 156.638 370 157.121C370 157.605 369.394 158 368.653 158C367.912 158 366.328 158.848 365.132 159.885C363.292 161.481 363.198 161.862 364.519 162.369C365.377 162.698 366.849 162.555 367.79 162.05C368.73 161.546 372.425 160.611 376 159.973C379.575 159.334 382.95 158.472 383.5 158.056C384.05 157.64 387.425 156.715 391 156C394.575 155.285 397.95 154.358 398.5 153.938C399.05 153.519 403.325 152.641 408 151.986C412.675 151.331 417.4 150.411 418.5 149.941C421.324 148.734 446.308 147 460.869 147C475.821 147 501.764 148.75 504.5 149.942C505.6 150.422 510.55 151.491 515.5 152.318C527.354 154.299 539.13 156.867 541 157.879C541.825 158.326 544.928 159.271 547.895 159.98C550.862 160.689 554.462 161.881 555.895 162.628C557.328 163.376 559.076 163.99 559.78 163.994C561.057 164 569.794 167.436 577.64 171.017C579.916 172.056 582.954 173.201 584.39 173.562C585.825 173.922 587 174.55 587 174.957C587 175.364 588.688 176.418 590.75 177.3C592.813 178.182 597.425 180.506 601 182.464C607.77 186.172 608.099 186.37 614.294 190.482C616.381 191.867 618.324 193 618.611 193C618.898 193 620.608 194.125 622.411 195.5C624.214 196.875 626.003 198 626.387 198C626.77 198 627.628 198.45 628.292 199C628.956 199.55 634.45 203.67 640.5 208.155C646.55 212.641 653.525 218.098 656 220.283C664.261 227.574 672.704 235.739 674.219 237.903C675.044 239.08 677.244 241.724 679.109 243.78C680.974 245.836 684.134 249.538 686.132 252.009C688.129 254.479 690.829 257.694 692.132 259.154C695.548 262.983 697.722 265.872 701.235 271.25L704.337 276H903.252C1061.63 276 1102.08 275.746 1101.75 274.754C1101.08 272.741 1088.36 270.567 1068.5 269.073C1034.65 266.525 976.225 261.615 959.5 259.912C953.45 259.297 938.825 258.029 927 257.096C915.175 256.162 904.825 255.123 904 254.787C903.175 254.451 894.4 253.659 884.5 253.027C874.6 252.396 864.925 251.495 863 251.025C861.075 250.555 850.275 249.626 839 248.96C827.725 248.295 818.072 247.356 817.55 246.875C817.028 246.394 814.327 245.973 811.55 245.94C801.313 245.82 796.77 244.521 794.032 240.932C792.639 239.106 790.24 236.311 788.7 234.72L785.9 231.828L789.337 227.664C792.122 224.292 811.532 204.803 820.244 196.632C821.34 195.605 821.843 194.48 821.362 194.132C820.882 193.784 819.168 191.7 817.555 189.5C812.784 182.996 783.018 154 781.112 154C780.148 154 772.641 160.904 764.43 169.342C756.218 177.781 748.268 185.479 746.763 186.449C744.139 188.14 743.905 188.136 741.103 186.356C734.612 182.234 724.046 173.413 724.024 172.098C724.011 171.327 725.965 167.277 728.367 163.098C730.768 158.919 733.049 154.488 733.434 153.25C733.819 152.012 734.442 150.999 734.817 150.999C735.193 150.998 737.075 147.96 739 144.249C740.925 140.537 742.756 137.275 743.069 137C743.992 136.189 748.262 126.923 747.864 126.595C747.664 126.43 739.85 121.899 730.5 116.526C721.15 111.154 711.7 105.665 709.5 104.328C707.3 102.991 704.263 101.371 702.75 100.729C701.237 100.087 700 99.21 700 98.781C700 98.351 699.415 98 698.699 98C697.555 98 692.752 105.421 686.5 116.845C685.4 118.855 684.186 120.737 683.803 121.026C683.42 121.316 680.7 126.309 677.759 132.123L672.413 142.693L664.956 139.777C660.855 138.174 656.15 136.262 654.5 135.529C652.85 134.797 650.6 134.029 649.5 133.824C647.822 133.51 647.557 132.81 647.854 129.475C648.049 127.289 648.538 125.275 648.942 125C649.345 124.725 650.179 122.25 650.795 119.5C652.393 112.368 654.901 102.542 657.047 95C660.47 82.975 660.458 82.932 653 80.334C649.425 79.089 644.025 77.53 641 76.87C637.975 76.21 635.05 75.336 634.5 74.929C633.95 74.521 630.575 73.651 627 72.994C623.425 72.337 618.7 71.197 616.5 70.461C614.3 69.724 610.382 68.845 607.794 68.506L603.088 67.891L601.611 73.195ZM525 298.112C519.225 298.57 512.7 299.383 510.5 299.918C508.3 300.453 501.775 301.635 496 302.545C490.225 303.455 485.05 304.54 484.5 304.956C483.95 305.373 480.626 306.263 477.113 306.934C473.599 307.605 469.999 308.539 469.113 309.009C468.226 309.479 465.7 310.321 463.5 310.88C458.659 312.109 448.616 315.596 444.5 317.476C442.85 318.229 440.262 319.154 438.75 319.531C437.238 319.908 436 320.618 436 321.108C436 321.599 435.376 322 434.614 322C431.512 322 400.153 339.03 399.167 341.25C398.983 341.663 398.394 342 397.857 342C397.32 342 394.934 343.462 392.555 345.25C390.176 347.038 387.22 349.175 385.986 350C376.979 356.021 354.838 378.159 347.5 388.48C346.4 390.028 343.578 393.815 341.228 396.897C338.878 399.979 336.27 403.4 335.433 404.5C330.989 410.337 320.715 423.7 319.671 425C319.009 425.825 316.899 428.75 314.983 431.5C313.068 434.25 310.979 436.95 310.343 437.5C309.388 438.326 301.732 448.348 293.79 459.17C292.849 460.451 287.263 467.8 281.377 475.5C275.491 483.2 265.13 496.817 258.353 505.759C242.624 526.516 238.53 531.137 227.936 540.099C221.616 545.445 207.227 555.53 203.835 556.99C202.551 557.543 200.825 558.419 200 558.937C197.955 560.22 187.283 565 186.463 565C186.1 565 184.384 565.655 182.651 566.456C179.773 567.786 174.134 569.339 162 572.141C159.525 572.713 149.85 573.561 140.5 574.025C113.99 575.342 111.909 575.837 104.313 582.644C102.56 584.215 99.881 586.4 98.36 587.5C96.839 588.6 94.223 590.652 92.547 592.06C90.871 593.468 85.675 597.518 81 601.06C76.325 604.602 72.009 607.95 71.408 608.5C70.808 609.05 68.835 610.625 67.025 612C65.215 613.375 62.953 615.175 62 616C61.047 616.825 58.775 618.625 56.952 620C55.129 621.375 50.187 625.2 45.969 628.5C41.752 631.8 37.056 635.4 35.535 636.5C32.751 638.513 29.856 640.808 25.445 644.5C24.13 645.6 18.768 649.835 13.527 653.912C4.518 660.922 4 661.527 4 665.055C4 667.535 4.531 668.99 5.582 669.393C8.215 670.404 144.649 670.055 157 669.006C167.875 668.083 173.806 667.052 189 663.444C192.575 662.595 197.525 661.421 200 660.835C202.475 660.249 204.95 659.419 205.5 658.992C206.05 658.565 209.421 657.473 212.991 656.567C216.561 655.66 219.914 654.486 220.441 653.959C220.968 653.432 222.022 653 222.782 653C227.14 653 268.72 632.504 269.833 629.807C270.017 629.363 270.618 629 271.17 629C272.011 629 274.641 627.32 282.476 621.776C294.293 613.415 306.303 601.338 317.558 586.5C322.147 580.45 330.843 568.975 336.883 561C342.923 553.025 351.158 542.247 355.183 537.05C359.207 531.852 368.3 519.927 375.39 510.55C396.012 483.272 406.4 469.59 407.487 468.275C408.533 467.01 409.818 465.338 415 458.5C420.038 451.851 421.454 450.006 422.5 448.725C423.05 448.051 424.836 445.7 426.47 443.5C431.629 436.55 438.255 429.875 446 423.823C450.125 420.6 454.059 417.506 454.743 416.949C457.618 414.602 479.935 403.818 484.988 402.333C488.006 401.446 491.156 400.336 491.988 399.868C492.82 399.399 496.425 398.313 500 397.455C503.575 396.596 508.3 395.382 510.5 394.757C513.414 393.929 572.039 393.538 726.5 393.314C892.484 393.074 939.043 392.739 941 391.77C943.152 390.704 962.647 375.648 967 371.69C967.825 370.94 971.52 368.037 975.212 365.238C982.452 359.75 984.17 358.366 986.798 355.908C987.734 355.032 991.65 351.914 995.5 348.979C999.35 346.043 1002.72 343.346 1003 342.985C1003.28 342.624 1004.22 341.918 1005.1 341.415C1005.98 340.912 1008.68 338.827 1011.1 336.782C1013.52 334.738 1018.22 330.913 1021.54 328.282C1024.87 325.652 1028.24 322.934 1029.04 322.243C1029.84 321.551 1033.65 318.478 1037.5 315.414C1053.73 302.498 1054.8 301.204 1051.8 298.2C1050.87 297.272 992.189 297.032 793.05 297.139C651.397 297.216 530.775 297.653 525 298.112ZM510 421.685C505.351 422.17 488.767 426.133 487.5 427.062C486.95 427.466 484.25 428.476 481.5 429.306C478.75 430.137 474.475 431.975 472 433.391C469.525 434.808 466.518 436.401 465.318 436.933C464.117 437.464 460.067 440.041 456.318 442.659C444.76 450.729 439.132 456.204 429.756 468.5C426.4 472.9 423.05 477.175 422.309 478C421.071 479.379 413.334 489.326 409.23 494.814C408.279 496.086 406.809 497.902 405.964 498.85C405.118 499.798 403.384 502.261 402.108 504.325C400.058 507.643 399.933 508.424 401.032 511.078C403.663 517.428 393.692 517 538.987 517C671.345 517 671.535 516.997 675.413 514.919C677.549 513.774 680.242 511.702 681.398 510.314C682.554 508.926 684.288 506.937 685.25 505.895C686.212 504.853 687 503.755 687 503.456C687 502.979 694.725 493.137 698.346 489C699.65 487.51 706.925 477.976 725.051 454.002C730.248 447.128 734.95 441.015 735.5 440.417C736.05 439.819 737.4 438.062 738.5 436.513C739.6 434.963 741.276 432.875 742.225 431.873C744.977 428.965 745.499 425.209 743.464 422.96C741.72 421.033 739.743 421.003 627.595 421.16C564.843 421.248 511.925 421.484 510 421.685ZM321.245 606.25C321.471 606.938 322.746 607.617 324.078 607.761C325.41 607.904 328.975 608.479 332 609.039C335.025 609.599 345.936 610.692 356.246 611.467C366.557 612.243 375.332 613.085 375.746 613.338C376.161 613.591 385.05 614.307 395.5 614.929C405.95 615.552 416.75 616.48 419.5 616.992C422.25 617.505 436.65 618.628 451.5 619.488C466.35 620.348 479.4 621.304 480.5 621.612C482.485 622.168 515.272 624.641 557.5 627.419C569.6 628.215 582.65 629.327 586.5 629.889C590.35 630.452 604.3 631.426 617.5 632.054C630.7 632.683 642.175 633.475 643 633.816C643.825 634.157 652.3 634.9 661.833 635.468L679.166 636.5L669.617 646.5C664.365 652 660.053 656.837 660.034 657.25C660.015 657.663 659.363 658 658.583 658C657.804 658 657.017 658.356 656.833 658.791C656.65 659.226 652.225 662.939 647 667.043C638.067 674.058 633.518 677.419 625.76 682.733C623.967 683.961 622.019 685.365 621.431 685.853C616.933 689.588 589.647 704.707 580.5 708.532C566.97 714.191 559.74 717.001 558.694 717.006C558.037 717.01 556.281 717.648 554.792 718.425C553.303 719.202 549.478 720.399 546.292 721.084C543.106 721.77 540.05 722.647 539.5 723.033C538.95 723.42 535.35 724.305 531.5 725C527.65 725.695 524.05 726.606 523.5 727.024C522.95 727.442 518.225 728.32 513 728.975C507.775 729.63 502.6 730.569 501.5 731.063C495.208 733.886 428.614 733.895 422.5 731.074C421.4 730.566 416.273 729.648 411.106 729.034C405.939 728.419 400.989 727.536 400.106 727.07C399.223 726.605 395.8 725.675 392.5 725.004C389.2 724.332 386.021 723.396 385.436 722.924C384.307 722.011 366.05 718.617 365.458 719.209C364.469 720.198 373.502 727 375.804 727C376.462 727 377 727.382 377 727.848C377 728.315 378.913 729.54 381.25 730.571C383.587 731.601 385.725 732.682 386 732.972C387.178 734.216 406.319 743 407.85 743C408.487 743 410.686 743.9 412.739 745C414.791 746.1 417.024 747 417.701 747C418.378 747 420.41 747.636 422.216 748.414C427.827 750.829 441.283 754.907 446 755.622C448.475 755.997 450.725 756.596 451 756.954C451.757 757.939 476.534 762.863 484.5 763.612C488.35 763.974 492.206 764.631 493.068 765.073C493.93 765.514 503.015 766.387 513.255 767.012C532.33 768.175 565.281 767.08 571.63 765.072C573.208 764.572 578.103 763.9 582.507 763.579L590.514 762.994L592.16 769.747C594.644 779.944 596.971 788.268 597.959 790.5C598.446 791.6 599.123 793.85 599.463 795.5C599.803 797.15 601.076 801.759 602.291 805.741L604.5 812.982L608 812.357C609.925 812.012 613.075 811.152 615 810.445C616.925 809.738 620.975 808.614 624 807.948C627.025 807.281 629.95 806.46 630.5 806.123C631.555 805.476 640.966 802.94 652.25 800.262C659.78 798.474 660.106 797.854 657.893 789.5C656.859 785.597 654.905 777.659 651.493 763.5C650.566 759.65 649.419 755.6 648.946 754.5C648.473 753.4 647.954 751.397 647.793 750.048C647.553 748.038 648.086 747.426 650.75 746.653C652.538 746.135 654 745.326 654 744.855C654 744.385 654.788 743.987 655.75 743.971C656.712 743.955 660.65 742.657 664.5 741.087C668.35 739.517 671.809 738.414 672.187 738.636C672.564 738.858 673.503 740.268 674.273 741.77C675.924 744.99 678.051 748.668 684.523 759.5C687.152 763.9 690.668 769.975 692.336 773C696.29 780.168 697.479 781.29 700.247 780.467C703.525 779.492 721.441 769.85 721.833 768.85C722.017 768.382 722.712 768 723.379 768C724.046 768 727.794 766.026 731.708 763.613C735.622 761.2 739.201 759.055 739.662 758.847C742.274 757.667 748 753.692 748 753.059C748 752.649 746.881 750.331 745.513 747.907C744.145 745.483 742.467 742.375 741.786 741C741.104 739.625 739.166 736.475 737.48 734C735.794 731.525 733.089 727.25 731.47 724.5C729.85 721.75 727.977 718.6 727.306 717.5C725.235 714.106 724 710.951 724 709.06C724 707.547 732.114 700.471 742.206 693.183C743.853 691.994 745.741 693.556 761.554 709.183C771.191 718.707 779.847 726.628 780.788 726.785C782.343 727.044 806.088 704.062 817.762 691L821.783 686.5L803.878 668.202L785.972 649.904L788.731 646.202C796.118 636.292 801.257 630 801.964 630C803.181 630 810.978 633.772 816.5 637.032C819.25 638.656 822.4 640.448 823.5 641.016C824.6 641.583 827.167 643.049 829.205 644.274C838.485 649.85 845.886 654 846.552 654C847.616 654 849.522 651.316 853.656 644C855.675 640.425 857.592 637.275 857.914 637C858.596 636.418 860.247 633.534 863.25 627.677C864.428 625.379 865.653 623.275 865.971 623C866.604 622.454 875 606.108 875 605.422C875 605.19 750.313 605 597.917 605C376.697 605 320.916 605.252 321.245 606.25ZM253.452 656.426C244.906 660.613 241.691 662.043 235 664.636C222.297 669.558 218.445 670.918 214 672.05C211.525 672.68 209.05 673.534 208.5 673.948C207.95 674.362 204.575 675.285 201 676C197.425 676.715 194.05 677.631 193.5 678.037C192.95 678.442 190.59 679.089 188.255 679.474C185.921 679.859 183.745 680.604 183.42 681.13C183.095 681.655 184.52 684.204 186.586 686.793C190.975 692.292 211.952 713.284 216.942 717.17L220.37 719.84L218.734 731.17C217.834 737.402 216.199 747.9 215.102 754.5C214.005 761.1 212.143 773.25 210.963 781.5C209.784 789.75 208.41 797.281 207.91 798.236C205.683 802.486 206.788 804.745 212.528 807.676C215.568 809.229 219.28 811.177 220.778 812.005C231.494 817.932 233.837 819.272 236.5 820.998C238.15 822.068 241.075 823.861 243 824.982C244.925 826.104 247.4 827.573 248.5 828.249C257.629 833.852 260.902 835.77 263.5 837.037C265.15 837.842 267.077 839.045 267.782 839.711C268.487 840.377 270.642 841.217 272.569 841.579C275.694 842.165 276.748 841.716 282.287 837.434C285.704 834.793 289.23 831.927 290.122 831.066C291.013 830.205 293.488 828.085 295.622 826.355C297.755 824.626 300.65 822.151 302.055 820.855C303.46 819.56 308.635 815.167 313.555 811.093C318.475 807.02 322.95 803.179 323.5 802.559C326.366 799.324 337.282 791.894 339.952 791.36C342.822 790.786 351.26 792.439 353.5 794.013C355.545 795.451 369.672 799.836 374.5 800.532C377.25 800.928 379.954 801.611 380.51 802.049C381.065 802.488 384.326 803.164 387.756 803.552L393.992 804.257L395.055 808.379C395.639 810.645 396.731 813.85 397.482 815.5C398.232 817.15 399.177 819.85 399.581 821.5C399.985 823.15 400.876 825.4 401.56 826.5C402.244 827.6 403.109 829.962 403.481 831.75C403.854 833.538 404.537 835 405 835C405.463 835 406.146 836.462 406.518 838.25C406.891 840.038 408.237 843.975 409.509 847C410.781 850.025 412.83 855.2 414.06 858.5C415.291 861.8 416.853 865.85 417.53 867.5C418.208 869.15 419.311 872.862 419.981 875.75L421.199 881H462.02H502.841L503.536 877.75C503.918 875.962 504.57 874.05 504.985 873.5C505.4 872.95 506.307 870.7 507.001 868.5C507.695 866.3 508.527 864.05 508.85 863.5C509.538 862.328 513.588 851.053 515.136 846C515.726 844.075 516.553 842.05 516.974 841.5C517.395 840.95 518.287 838.7 518.956 836.5C519.625 834.3 520.785 831.131 521.534 829.458C522.284 827.785 523.463 824.297 524.156 821.708C524.848 819.119 525.771 817 526.207 817C526.643 817 527 816.242 527 815.316C527 814.389 527.921 811.729 529.046 809.404C530.886 805.603 531.617 805.054 536.296 803.958C539.158 803.287 541.95 802.408 542.5 802.006C543.05 801.603 545.525 800.967 548 800.594C553.861 799.709 572.926 795.16 575.5 794.032C576.6 793.55 578.85 792.859 580.5 792.497C585.741 791.346 593 787.803 593 786.396C593 784.518 589.087 783.716 582.801 784.307C550.232 787.368 533.655 788.011 513.5 786.994C501.95 786.412 491.15 785.536 489.5 785.048C487.85 784.56 481.1 783.435 474.5 782.548C467.9 781.661 461.6 780.526 460.5 780.027C459.4 779.528 456.25 778.641 453.5 778.057C450.75 777.472 444.675 775.915 440 774.596C435.325 773.278 428.8 771.438 425.5 770.507C422.2 769.577 419.05 768.486 418.5 768.083C417.95 767.68 415.479 766.771 413.008 766.063C410.538 765.354 407.625 764.151 406.536 763.387C405.446 762.624 403.936 762 403.179 762C400.483 762 366.04 745.4 358 740.226C345.705 732.313 338.473 727.5 338 726.916C337.725 726.577 336.453 725.748 335.174 725.074C333.895 724.4 332.095 723.184 331.174 722.372C329.564 720.951 314.699 709.418 308.5 704.779C301.137 699.268 266.559 663.527 261.228 655.914C259.535 653.498 259.411 653.506 253.452 656.426Z" fill="white"/>
</g>
<defs>
<filter id="filter0_d_14_52" x="0" y="0" width="1105.75" height="889" filterUnits="userSpaceOnUse" color-interpolation-filters="sRGB">
<feFlood flood-opacity="0" result="BackgroundImageFix"/>
<feColorMatrix in="SourceAlpha" type="matrix" values="0 0 0 0 0 0 0 0 0 0 0 0 0 0 0 0 0 0 127 0" result="hardAlpha"/>
<feOffset dy="4"/>
<feGaussianBlur stdDeviation="2"/>
<feComposite in2="hardAlpha" operator="out"/>
<feColorMatrix type="matrix" values="0 0 0 0 0 0 0 0 0 0 0 0 0 0 0 0 0 0 0.25 0"/>
<feBlend mode="normal" in2="BackgroundImageFix" result="effect1_dropShadow_14_52"/>
<feBlend mode="normal" in="SourceGraphic" in2="effect1_dropShadow_14_52" result="shape"/>
</filter>
</defs>
</svg>
